<svg width="89" height="90" viewBox="0 0 89 90" fill="none" xmlns="http://www.w3.org/2000/svg">
<circle cx="44.5" cy="45" r="44.5" fill="#330717"/>
<path d="M31.6732 35.9789C29.1787 36.5712 26.9412 36.4906 24.4903 37.4675C22.5411 38.2443 24.5161 40.0966 25.3779 41.0279C27.2672 43.0698 29.4607 44.8768 31.0612 47.1786C31.4039 47.6714 34.2937 51.0876 32.8078 50.3484" stroke="#B8ADA0" stroke-width="3" stroke-linecap="round"/>
<path d="M56.3379 23.3999C48.8286 38.4949 41.5883 53.9742 34.1355 68.9556" stroke="#B8ADA0" stroke-width="3" stroke-linecap="round"/>
<path d="M58.5791 38.3198C61.3984 39.7223 64.5568 41.412 66.074 44.3236C66.4039 44.9566 67.8459 47.3396 67.484 48.0672C67.2141 48.6097 66.106 48.2321 65.6421 48.3781C63.9943 48.8967 62.5557 49.9904 60.8556 50.3941C59.1658 50.7953 56.3514 52.3971 54.7367 51.5939" stroke="#B8ADA0" stroke-width="3" stroke-linecap="round"/>
</svg>
