<svg width="150" height="137" viewBox="0 0 150 137" fill="none" xmlns="http://www.w3.org/2000/svg">
<path d="M36.508 106.242C58.0006 144.757 79.977 107.699 104.027 89.9939C105.507 88.9045 120.972 79.3328 112.806 76.9972C103.576 74.3574 85.0197 94.3437 89.8808 86.7881C95.9573 77.3436 118.254 54.1937 113.817 47.2238C109.38 40.2538 76.9917 85.0257 82.0388 73.9787C79.6209 71.7718 104.765 43.2761 103.335 32.8724C101.307 18.1201 76.1721 58.8115 71.9623 62.3401C62.7378 70.6647 66.4537 61.906 66.9443 61.0505C70.477 54.8907 91.2598 27.6348 83.8606 25.6318C76.4615 23.6287 63.3399 42.8707 59.198 48.5628C56.1365 52.7702 54.0864 55.9555 50.8825 59.9913C47.4378 64.3305 44.572 69.625 40.9737 73.936C39.6372 75.5373 38.5719 71.7034 37.9694 70.7655C36.5272 68.5202 33.8891 61.7494 32.5691 59.6945C31.2492 57.6396 26.6309 53.7444 21.8074 56.9477C18.4026 59.2088 20.1101 64.3875 23.8675 70.2369C30.2056 84.4007 27.9287 84.738 28.2714 96.6269C28.1244 102.687 28.67 106.883 32.9344 112.968" stroke="#B8ADA0" stroke-opacity="0.4" stroke-width="3" stroke-linecap="round"/>
<path d="M140.595 82.6447C141.253 88.6756 138.613 93.107 133.597 96.3998C132.277 97.2658 131.063 98.1069 129.595 98.6705C129.103 98.8591 127.236 99.2688 127.531 99.2359" stroke="#B8ADA0" stroke-opacity="0.4" stroke-width="3" stroke-linecap="round"/>
<path d="M130.424 86.8016C130.748 89.7786 125.577 92.9634 123.052 93.2436" stroke="#B8ADA0" stroke-opacity="0.4" stroke-width="3" stroke-linecap="round"/>
<path fill-rule="evenodd" clip-rule="evenodd" d="M44.2823 29.6738C44.262 29.2101 44.2301 28.4742 44.259 28.0925C44.3816 26.4739 44.8128 25.0127 45.213 23.6564C45.255 23.514 45.2967 23.3727 45.3377 23.2324C46.2396 20.1454 47.6314 17.4885 49.6602 15.4516C51.7016 13.4021 54.3141 12.0553 57.5222 11.4855C58.3335 11.3414 59.1065 11.8897 59.2489 12.7103C59.3912 13.5308 58.8489 14.3128 58.0377 14.4569C55.3755 14.9298 53.333 16.0147 51.7614 17.5926C50.1772 19.183 48.9982 21.3489 48.1982 24.087C48.1588 24.2219 48.1198 24.3544 48.0815 24.4847C47.6689 25.889 47.33 27.0426 47.2331 28.3224L47.233 28.3232L47.2329 28.3256L47.2324 28.3345C47.232 28.3423 47.2316 28.3528 47.2312 28.3661C47.2305 28.3932 47.23 28.4276 47.2299 28.4697C47.2297 28.5545 47.2311 28.6579 47.2341 28.7762C47.2399 29.013 47.251 29.2839 47.2622 29.5402C47.2648 29.6003 47.2675 29.6606 47.2701 29.7196C47.2782 29.9023 47.2858 30.0732 47.2897 30.1938L47.2899 30.1986C47.2918 30.2562 47.2957 30.3752 47.2905 30.475C47.2905 30.4755 47.2905 30.4761 47.2905 30.477C47.2896 30.4955 47.2844 30.6078 47.2552 30.7397C47.2459 30.7816 47.2278 30.8557 47.1947 30.9445C47.1687 31.0142 47.0952 31.2006 46.9326 31.3931C46.7599 31.5976 46.3476 31.9563 45.7132 31.9198C45.1475 31.8872 44.8093 31.5555 44.6985 31.4333C44.4889 31.2023 44.4051 30.9573 44.3963 30.9316C44.396 30.9306 44.3957 30.9299 44.3956 30.9296C44.3699 30.8586 44.3548 30.8003 44.348 30.7733C44.3336 30.7153 44.3248 30.6662 44.3209 30.6437C44.2964 30.5023 44.2922 30.3621 44.3062 30.226C44.3026 30.1325 44.2973 30.0137 44.2912 29.8745C44.2884 29.8116 44.2854 29.7446 44.2823 29.6738ZM47.258 30.1173C47.2583 30.1188 47.2585 30.1203 47.2588 30.1218L47.2587 30.1214C47.2586 30.1206 47.2584 30.1192 47.258 30.1173Z" fill="#B8ADA0" fill-opacity="0.4"/>
<path fill-rule="evenodd" clip-rule="evenodd" d="M52.9486 33.5448C52.1373 33.6889 51.3642 33.1406 51.2219 32.32C50.9395 30.6919 51.296 28.2834 52.0491 26.2611C52.4343 25.2266 52.9587 24.1939 53.6417 23.3569C54.32 22.5258 55.2488 21.7774 56.4457 21.5648C57.257 21.4207 58.03 21.9691 58.1724 22.7896C58.3147 23.6101 57.7724 24.3921 56.9612 24.5363C56.7091 24.581 56.3567 24.7689 55.9419 25.2772C55.5319 25.7796 55.1513 26.4892 54.8404 27.3241C54.2012 29.0405 54.0003 30.8789 54.1598 31.7982C54.3021 32.6187 53.7598 33.4007 52.9486 33.5448Z" fill="#B8ADA0" fill-opacity="0.4"/>
</svg>
