<svg width="121" height="114" viewBox="0 0 121 114" fill="none" xmlns="http://www.w3.org/2000/svg">
<g id="hand">
<path id="Vector" d="M18.5358 95.2704C40.0284 133.786 62.0048 96.7277 86.0547 79.0227C87.5346 77.9332 103 68.3616 94.8336 66.026C85.6033 63.3861 67.0474 83.3725 71.9086 75.8169C77.985 66.3723 100.282 43.2225 95.8448 36.2525C91.4078 29.2826 59.0194 74.0545 64.0665 63.0075C61.6486 60.8006 86.793 32.3049 85.3628 21.9012C83.3347 7.14888 58.1998 47.8403 53.99 51.3689C44.7655 59.6935 48.4814 50.9348 48.9721 50.0792C52.5047 43.9195 73.2875 16.6636 65.8884 14.6606C58.4892 12.6575 45.3677 31.8994 41.2258 37.5916C38.1643 41.7989 36.1141 44.9843 32.9102 49.0201C29.4655 53.3593 26.5997 58.6538 23.0015 62.9648C21.665 64.5661 20.5997 60.7322 19.9972 59.7942C18.5549 57.549 15.9168 50.7782 14.5969 48.7233C13.2769 46.6684 8.65867 42.7731 3.83516 45.9764C0.430339 48.2376 2.13783 53.4163 5.89526 59.2657C12.2333 73.4295 9.95639 73.7668 10.2992 85.6556C10.1522 91.7153 10.6977 95.9119 14.9621 101.996M119.189 73.3166C119.847 79.3475 117.207 83.779 112.19 87.0717C110.871 87.9377 109.657 88.7788 108.188 89.3424C107.697 89.531 105.829 89.9407 106.125 89.9079M109.018 77.4735C109.343 80.4505 104.172 83.6353 101.647 83.9155M39.8096 2C33.9393 3.04276 30.4995 6.86343 28.7976 12.6885C28.35 14.2205 27.8964 15.6427 27.7757 17.2362C27.7353 17.7696 27.8713 19.7099 27.8195 19.4116M38.7326 12.0793C35.8348 12.5941 34.2781 18.5405 34.72 21.0879" stroke="#B8ADA0" stroke-opacity="0.4" stroke-width="3" stroke-linecap="round"/>
</g>
</svg>
