<svg width="390" height="521" viewBox="0 0 390 521" fill="none" xmlns="http://www.w3.org/2000/svg">
<g opacity="0.1">
<path fill-rule="evenodd" clip-rule="evenodd" d="M351.871 25.0062C369.986 45.8463 372.92 73.4146 372.92 89.0953C372.92 101.427 362.921 111.423 350.587 111.423C338.253 111.423 328.254 101.427 328.254 89.0953C328.254 76.8459 325.551 62.8044 318.157 54.2977C312.804 48.1394 300.124 39.3921 265.562 48.5762C251.444 52.3277 241.243 64.1454 234.078 81.3962C227.003 98.4283 224.732 116.687 224.259 124.816C222.529 154.565 222.174 184.524 223.766 214.033C229.201 211.187 235.075 208.02 241 204.733C257.391 195.64 271.424 187.147 276.206 183.469C285.981 175.949 300.003 177.776 307.525 187.549C315.046 197.322 313.219 211.34 303.444 218.86C295.579 224.91 278.583 234.953 262.672 243.78C250.887 250.318 238.226 257 228.277 261.761C228.393 262.734 228.511 263.712 228.629 264.695C228.86 266.61 229.092 268.543 229.326 270.495C231.298 286.997 233.297 304.631 234.129 322.306C235.779 357.345 233.054 395.487 214.16 428.936C194.212 464.253 158.504 497.671 118.252 511.782C108.491 515.204 95.1725 518.73 81.4654 520.215C68.4468 521.625 51.6192 521.602 37.2392 514.632C13.48 503.115 4.17692 479.792 1.25369 460.179C-1.7101 440.293 0.915057 419.307 5.63412 403.701C23.5896 344.323 75.224 305.909 115.938 277.294C125.514 270.564 135.558 264.735 144.634 259.466C145.717 258.838 146.786 258.217 147.839 257.604C158.07 251.647 167.111 246.205 175.322 239.868C177.736 238.005 179.374 236.684 180.51 235.745C180.251 232.831 180.019 229.941 179.821 227.085C177.397 192.123 177.656 156.825 179.668 122.225C180.308 111.229 183.156 87.5538 192.828 64.2695C202.409 41.2038 220.583 14.3227 254.088 5.41924C299.014 -6.51874 331.715 1.8177 351.871 25.0062ZM186.24 286.601C180.805 290.052 175.432 293.214 170.32 296.191C169.247 296.816 168.186 297.432 167.138 298.041C157.838 303.445 149.518 308.28 141.625 313.826C99.5894 343.369 61.308 373.9 48.3886 416.624C45.2625 426.962 43.5901 441.241 45.4316 453.597C47.3137 466.226 51.9189 472.12 56.7257 474.451C59.7082 475.896 66.3227 476.938 76.6547 475.819C86.298 474.775 96.2379 472.178 103.473 469.642C131.97 459.652 159.786 434.388 175.268 406.979C187.969 384.491 191.025 356.535 189.513 324.405C188.928 311.984 187.692 299.376 186.24 286.601Z" fill="#DD5815"/>
<path d="M390 175.073C390 188.437 379.803 199.27 367.226 199.27C354.648 199.27 344.452 188.437 344.452 175.073C344.452 161.709 354.648 150.876 367.226 150.876C379.803 150.876 390 161.709 390 175.073Z" fill="#DD5815"/>
<path fill-rule="evenodd" clip-rule="evenodd" d="M367.226 198.853C379.587 198.853 389.607 188.207 389.607 175.073C389.607 161.94 379.587 151.293 367.226 151.293C354.865 151.293 344.844 161.94 344.844 175.073C344.844 188.207 354.865 198.853 367.226 198.853ZM367.226 199.27C379.803 199.27 390 188.437 390 175.073C390 161.709 379.803 150.876 367.226 150.876C354.648 150.876 344.452 161.709 344.452 175.073C344.452 188.437 354.648 199.27 367.226 199.27Z" fill="#DD5815"/>
</g>
</svg>
