<svg width="80" height="80" viewBox="0 0 80 80" fill="none" xmlns="http://www.w3.org/2000/svg">
<g id="moodboards">
<circle id="Ellipse 3" cx="40" cy="40" r="40" fill="#432A3C"/>
<path id="Vector" d="M19.7257 46.2499C19.7257 46.2499 18.6787 32.1008 18.9105 31.8668C19.1422 31.6328 35.9287 31.7418 38.478 31.7418C39.6441 31.7418 40.1086 46.2499 40.1086 47.8937C40.1086 49.5374 19.7257 48.3046 19.7257 48.3046M45.4079 31.4559C45.9516 30.634 61.17 30.634 61.3064 31.0449C61.492 31.6039 62.5294 38.8529 61.7152 39.0617C61.7152 39.0617 46.2249 39.6748 45.8171 39.2638C44.8108 38.2496 45.0018 33.5106 45.0018 33.5106M24.5757 20.7713C24.2638 21.1007 24.5553 24.7551 24.5758 25.769C24.6064 27.28 25.0253 26.9401 30.5155 26.9401C36.7906 26.9401 43.064 27.4671 49.3511 27.4671H51.3892C51.7508 27.5111 52.4016 23.1431 51.523 21.5932C51.1546 20.9433 41.6593 21.1822 39.2933 21.1822C36.1367 21.0451 24.8871 20.4419 24.5757 20.7713ZM45.8174 42.9623C45.4097 43.3733 45.8162 54.8798 45.8162 57.7564C45.8161 59.4002 55.6012 58.5783 56.4165 58.1673C57.2318 57.7564 56.0088 43.7842 55.6011 43.3733C55.1935 42.9623 45.9278 42.8511 45.8174 42.9623ZM38.4775 54.0578C37.6622 54.0578 36.665 54.6089 36.0326 55.2907C35.1258 56.2684 34.8097 58.5782 36.1352 59.4107C37.9805 60.5697 40.7823 59.2697 40.7823 57.244C40.7823 54.6089 39.2928 54.0578 38.4775 54.0578ZM29.5102 55.2907C26.2487 55.2907 24.7305 60.3597 29.511 60.222C31.4083 60.1674 32.1992 58.8037 31.9547 57.3454C31.7475 56.1099 31.1426 55.2907 29.5102 55.2907Z" stroke="#B8ADA0" stroke-width="3" stroke-linecap="round"/>
</g>
</svg>
