<svg width="89" height="89" viewBox="0 0 89 89" fill="none" xmlns="http://www.w3.org/2000/svg">
<circle cx="44.5" cy="44.5" r="44.5" fill="#330717"/>
<path d="M17.8936 36.6623C17.8936 42.4516 17.6775 48.2774 18.2142 54.0469C18.2545 54.4802 18.279 56.1059 18.6061 56.4694C19.1323 57.0541 22.6498 57.2052 23.2728 57.2887C28.8642 58.0384 34.0956 56.4791 39.3215 54.6347C41.1246 53.9983 45.4814 55.5942 44.487 52.9426C42.5105 47.6717 41.6933 41.0772 41.6193 35.4511C41.616 35.2034 41.8518 33.5913 41.4412 33.474C40.0494 33.0763 38.0265 33.4561 36.5963 33.4561C33.4696 33.4561 30.4076 33.4804 27.2984 33.848C25.0773 34.1106 22.689 34.6749 20.4585 34.7386C19.7905 34.7577 18.2011 34.4443 17.8936 35.0592" stroke="#B8ADA0" stroke-width="3" stroke-linecap="round"/>
<path d="M24.9482 22.8757C24.9482 24.1096 24.923 25.3471 24.9482 26.5806C24.9857 28.4191 30.8232 28.0056 32.2333 28.0056C39.9298 28.0056 47.6243 28.6468 55.3356 28.6468C55.8784 28.6468 58.5702 29.0833 58.4171 28.5933C57.7424 26.4343 58.4082 23.3365 57.3306 21.4507C56.8787 20.66 51.2946 21.1423 50.5976 21.1123C46.7259 20.9454 42.8594 20.6313 38.9841 20.6313C33.9848 20.6313 28.9856 20.6313 23.9863 20.6313" stroke="#B8ADA0" stroke-width="3" stroke-linecap="round"/>
<path d="M48.6731 35.7002C48.6731 37.4567 48.3094 39.5943 48.6909 41.311C48.8965 42.236 51.6331 42.1978 52.1286 42.2728C54.6306 42.6519 57.0214 42.7538 59.5385 42.7538C62.7656 42.7538 66.3352 43.202 69.4598 42.2906C70.1718 42.083 70.7957 42.3071 70.7957 41.4C70.7957 40.0496 70.4751 38.7231 70.4751 37.3567C70.4751 36.5852 70.9134 33.1824 70.0832 32.8859C68.5346 32.3328 66.0816 32.8146 64.4902 32.8146C62.3706 32.8146 60.2509 32.8146 58.1313 32.8146C56.13 32.8146 54.1961 33.0976 52.1999 33.1352C50.9777 33.1583 49.7956 33.7765 48.6731 33.7765" stroke="#B8ADA0" stroke-width="3" stroke-linecap="round"/>
<path d="M48.6735 48.8455C48.6735 52.4304 48.3225 56.2164 49.1544 59.7286C49.5787 61.52 50.4651 63.0121 50.9178 64.8229C51.3584 66.5854 58.5295 66.1783 59.9307 66.1588C61.7392 66.1337 61.826 65.2308 62.1394 63.7007C63.0836 59.0909 62.464 55.0007 61.8188 50.4842C61.6546 49.3346 61.4864 47.9909 60.0554 47.9014C56.0649 47.652 52.0365 47.563 48.0322 47.563" stroke="#B8ADA0" stroke-width="3" stroke-linecap="round"/>
<path d="M43.8639 62.3116C42.9192 62.3116 38.3064 61.733 38.1106 62.8104C37.8831 64.0613 37.5235 67.1774 39.1259 67.5128C41.0369 67.9128 44.8257 67.3413 44.8257 64.8766C44.8257 63.2337 44.4088 62.4238 42.902 61.6704" stroke="#B8ADA0" stroke-width="3" stroke-linecap="round"/>
<path d="M32.6426 62.3116C27.5153 62.3116 26.1379 68.8915 32.0013 68.724C34.3284 68.6575 33.925 65.7777 33.925 64.2354C33.925 62.1681 33.3622 61.6704 31.3601 61.6704" stroke="#B8ADA0" stroke-width="3" stroke-linecap="round"/>
</svg>
