<svg width="2072" height="2072" viewBox="0 0 2072 2072" fill="none" xmlns="http://www.w3.org/2000/svg">
<g clip-path="url(#clip0_249_1885)">
<rect width="2072" height="2072" rx="1036" fill="#DD5815"/>
<path d="M1392.4 613.545C1392.4 544.745 1364.64 408.549 1168.88 460.58C1051.6 491.753 1029.12 651.235 1026.38 698.345C1021.54 781.733 1020.94 866.3 1026.72 949.654C1037 1097.99 1086.34 1285.84 1008.53 1423.64C964.902 1500.89 886.68 1573.17 802.026 1602.85C760.169 1617.53 687.465 1633.02 644.705 1612.29C574.354 1578.18 576.201 1468.34 595.522 1404.43C633.54 1278.68 744.26 1193.76 846.156 1122.13C894.18 1088.37 947.7 1064.52 994.381 1028.48C1032.77 998.851 1002.58 1016.73 1046.25 998.828C1089.93 980.921 1211.62 913.572 1242.76 889.607" stroke="#FCF9F3" stroke-width="110" stroke-linecap="round"/>
<circle cx="1430.67" cy="826.396" r="57.5503" fill="#FCF9F3" stroke="#FCF9F3"/>
</g>
<defs>
<clipPath id="clip0_249_1885">
<rect width="2072" height="2072" fill="white"/>
</clipPath>
</defs>
</svg>
