<svg width="2072" height="2072" viewBox="0 0 2072 2072" fill="none" xmlns="http://www.w3.org/2000/svg">
<g clip-path="url(#clip0_93_29)">
<rect x="0.5" y="0.5" width="2071" height="2071" rx="399.5" fill="#59364D" stroke="#F0E2D2"/>
<path d="M1450 545.331C1450 465.331 1417.72 306.965 1190.09 367.465C1053.72 403.712 1027.58 589.155 1024.4 643.935C1018.76 740.897 1018.07 839.23 1024.79 936.152C1036.74 1108.64 1094.11 1327.07 1003.64 1487.29C952.907 1577.13 861.952 1661.17 763.517 1695.68C714.847 1712.75 630.307 1730.76 580.587 1706.65C498.784 1666.99 500.931 1539.27 523.397 1464.96C567.605 1318.74 696.348 1220 814.831 1136.71C870.672 1097.45 932.904 1069.71 987.185 1027.81C1031.82 993.358 996.715 1014.15 1047.5 993.331C1098.28 972.51 1239.78 894.197 1276 866.331" stroke="#F0E2D2" stroke-width="126" stroke-linecap="round"/>
<circle cx="1494.5" cy="792.831" r="67" fill="#F0E2D2" stroke="#F0E2D2"/>
</g>
<defs>
<clipPath id="clip0_93_29">
<rect width="2072" height="2072" fill="white"/>
</clipPath>
</defs>
</svg>
